<?xml version="1.0" ?>
<svg version="1.0" xmlns="http://www.w3.org/2000/svg"
 width="1024" height="1024" viewBox="0 0 1024 1024" preserveAspectRatio="xMidYMid meet">

<g transform="translate(0,1024) scale(0.1,-0.1)" fill="#000000">
<path d="M4790 9413 c-19 -2 -96 -12 -170 -24 -755 -112 -1428 -412 -1995
-888 -117 -99 -350 -332 -446 -446 -462 -551 -757 -1189 -863 -1865 -20 -128
-46 -442 -46 -562 0 -297 47 -687 116 -950 49 -193 163 -491 269 -707 152
-310 295 -524 558 -834 l32 -39 5 -226 5 -227 35 -75 c71 -152 251 -359 377
-433 200 -117 494 -157 527 -72 19 49 -15 141 -67 184 -26 21 -21 28 28 34 25
4 58 13 73 21 27 14 29 13 57 -22 80 -102 228 -273 359 -417 161 -175 215
-260 219 -345 l2 -44 -80 -29 c-44 -16 -150 -56 -235 -89 -85 -33 -236 -91
-335 -129 -99 -38 -194 -76 -210 -83 -21 -9 -56 -51 -113 -135 l-83 -121 1425
0 1426 0 0 200 c0 110 3 200 8 200 11 0 439 -107 512 -128 36 -11 98 -41 138
-67 150 -97 324 -162 520 -196 145 -24 440 -26 582 -4 521 84 919 420 1100
930 69 197 102 375 120 660 6 94 13 177 15 185 3 8 16 220 30 470 13 250 27
484 30 520 3 36 10 173 15 306 l9 240 41 115 c92 255 159 529 194 789 21 157
24 187 32 405 18 518 -84 1036 -308 1560 -141 331 -315 617 -559 920 -636 791
-1584 1300 -2626 1410 -126 13 -619 19 -723 8z m387 -654 c342 -38 653 -226
885 -534 49 -66 134 -204 168 -276 20 -42 27 -47 74 -59 178 -44 447 -177 649
-322 132 -94 217 -166 360 -307 571 -560 983 -1325 1122 -2084 45 -247 58
-432 52 -727 -7 -318 -34 -538 -98 -795 -23 -94 -64 -230 -73 -242 0 -1 -2 85
-2 190 -3 440 -65 978 -169 1459 -83 390 -223 781 -371 1040 l-59 103 -8 -99
c-4 -54 -16 -135 -27 -178 -22 -88 -67 -198 -82 -198 -5 0 -6 5 -3 10 9 14
-12 244 -31 345 -21 111 -75 295 -114 388 -45 109 -137 245 -223 331 -61 61
-155 136 -170 136 -3 0 2 -19 10 -42 23 -66 14 -179 -19 -251 -37 -78 -125
-165 -208 -204 -116 -54 -139 -57 -470 -58 -285 0 -311 -2 -395 -23 -183 -47
-350 -151 -449 -281 -55 -71 -58 -84 -11 -42 44 38 156 96 247 127 106 36 204
47 351 41 130 -5 219 -24 327 -69 l35 -15 -59 -7 c-290 -37 -545 -205 -723
-476 -35 -52 -75 -123 -90 -158 -26 -58 -30 -63 -53 -58 -110 25 -149 28 -320
23 -163 -4 -199 -9 -305 -36 -66 -16 -156 -44 -200 -61 -86 -34 -346 -166
-305 -156 59 15 255 46 288 46 28 -1 2 -13 -108 -49 -187 -62 -287 -104 -490
-206 -353 -179 -694 -406 -897 -598 -86 -82 -109 -112 -142 -189 l-20 -47 43
5 44 6 12 -88 c27 -186 -4 -345 -97 -506 l-46 -80 7 -176 c4 -98 13 -207 20
-243 23 -120 78 -184 190 -219 l40 -13 -22 -18 c-48 -39 -160 -44 -227 -11
-70 34 -104 87 -136 210 -27 107 -79 408 -79 459 0 24 -4 43 -8 43 -11 0 -52
-130 -52 -164 0 -55 42 -322 66 -415 31 -124 55 -171 125 -246 33 -34 59 -65
59 -69 0 -3 -36 -4 -80 -3 -70 2 -85 6 -121 32 -83 59 -91 83 -165 503 l-48
272 -18 -47 c-23 -61 -23 -116 2 -310 44 -346 72 -449 141 -528 l34 -38 -67 5
c-76 6 -124 31 -151 77 -10 17 -24 77 -32 138 -23 168 -55 492 -55 550 0 55
48 217 210 706 134 403 170 463 407 683 314 293 595 508 898 688 292 173 588
292 815 328 l80 12 0 41 c0 92 58 226 141 325 91 110 239 201 380 236 73 18
79 26 79 113 0 60 47 215 91 303 177 353 497 567 909 610 122 12 327 5 418
-15 34 -7 62 -11 62 -8 0 12 -237 157 -338 208 -164 82 -418 173 -487 173 -15
0 -33 25 -73 103 -97 188 -274 407 -419 517 -84 63 -223 132 -328 162 -114 33
-350 32 -475 -1 -222 -59 -418 -186 -539 -350 -29 -39 -54 -71 -56 -71 -2 0 3
20 10 43 19 64 60 141 97 183 l33 37 -35 -18 c-66 -33 -156 -103 -218 -169
-63 -67 -132 -191 -132 -237 -1 -21 -2 -22 -11 -7 -5 10 -11 49 -12 87 -2 56
2 73 17 90 11 12 14 21 8 21 -19 0 -114 -123 -143 -185 -16 -33 -35 -85 -43
-115 l-14 -55 -18 40 c-25 56 -25 182 0 257 67 205 307 439 601 586 190 95
385 149 585 162 63 4 123 8 133 8 10 1 61 -3 114 -9z m148 -832 c171 -97 155
-435 -26 -527 -50 -26 -90 -25 -123 1 l-27 22 39 17 c22 10 52 35 68 55 23 31
29 50 32 104 3 59 0 72 -28 125 l-32 58 31 -4 c41 -6 41 16 1 37 -37 19 -53
19 -91 -1 -36 -18 -68 -83 -69 -136 0 -47 -13 -49 -33 -5 -26 57 -30 94 -13
145 38 115 168 167 271 109z m-800 -246 c75 -35 146 -111 189 -201 29 -60 31
-73 31 -170 0 -95 -3 -110 -27 -156 -35 -66 -101 -124 -169 -148 -57 -21 -202
-27 -284 -13 -44 8 -46 10 40 -45 123 -80 214 -221 222 -345 6 -82 -6 -116
-49 -144 -30 -18 -43 -20 -143 -15 -335 18 -408 17 -497 -2 l-87 -18 -8 46
c-19 111 1 292 33 304 9 3 14 20 14 45 0 31 -7 49 -31 75 l-31 36 35 42 c19
24 50 69 70 101 20 31 42 57 49 57 7 0 22 3 33 6 14 3 23 -2 30 -18 19 -43 79
-63 185 -62 79 0 107 5 164 27 154 61 221 147 221 285 0 68 -2 75 -28 98 -43
37 -84 32 -159 -21 -157 -110 -250 -155 -323 -155 -44 0 -73 14 -101 48 l-21
25 -6 -29 c-7 -37 -47 -81 -81 -90 -33 -8 -93 22 -120 59 -33 45 -28 126 13
205 l32 64 52 -57 52 -56 43 57 44 56 32 -31 33 -32 74 55 c139 105 232 144
344 145 57 1 81 -4 130 -28z m-349 -1336 l59 -30 -140 -6 c-88 -4 -164 -13
-203 -24 -71 -20 -82 -15 -82 36 0 23 6 28 43 37 69 19 88 20 178 18 72 -2 95
-7 145 -31z m404 -300 c0 -2 -20 -33 -45 -68 -48 -69 -95 -162 -95 -188 0 -11
-20 -23 -62 -37 -204 -67 -431 -186 -561 -295 -26 -22 -51 -37 -54 -33 -4 3 5
54 20 112 31 126 103 280 175 374 79 104 74 101 177 89 93 -10 254 5 375 35
64 17 70 18 70 11z m460 -1274 c842 -150 1901 -828 2360 -1511 58 -86 170
-280 170 -294 0 -4 -17 6 -37 22 -21 16 -60 45 -88 64 -27 19 -176 124 -330
233 -560 396 -622 439 -756 525 -413 264 -753 428 -1059 509 -59 15 -67 20
-40 20 45 1 222 -29 304 -50 21 -6 40 -9 42 -6 7 6 -198 125 -287 166 -179 82
-308 114 -464 114 -177 0 -346 -60 -459 -164 -31 -28 -95 -100 -141 -159 -137
-175 -300 -310 -326 -269 -26 43 -36 161 -19 248 53 279 295 506 605 567 101
19 377 12 525 -15z m-1164 -943 c15 -29 45 -79 67 -112 l39 -58 -12 -57 c-6
-31 -14 -123 -17 -206 -10 -293 39 -526 246 -1150 78 -236 118 -346 162 -447
17 -39 29 -71 27 -73 -2 -2 -33 31 -69 73 -338 400 -551 853 -610 1296 -17
136 -7 420 20 521 18 70 104 265 116 265 3 0 17 -24 31 -52z"/>
<path d="M3972 6923 c-46 -30 -72 -74 -72 -121 l0 -31 63 28 c65 30 80 48 92
114 7 34 6 37 -17 37 -13 0 -43 -12 -66 -27z"/>
</g>
</svg>
