<?xml version="1.0" encoding="UTF-8"?>
<svg width="1024" height="1024" version="1.0" viewBox="0 0 1024 1024" xmlns="http://www.w3.org/2000/svg">
 <path d="m518 148c78.7 8.74 101 83.9 113 86.9l-78.9 186-67.8 34.6c-1.1-24.9 21.9-52.7 52.1-60.2 14.3-3.51 2.31-12.2 17-41.6 38-75.7 217-96.8 56.5-96.8-5.63 0-25.1-61.9-82-78.2-11.4-3.3-35-3.2-47.5 0.1-43.4 11.5-57.8 42.1-59.5 42.1 1.57-10.1 7.34-18.8 14-26.3-39.4 20.3-37.4 46.8-39.6 43.1-0.246-0.491-3.17-13.5 0.5-17.7-11 4.05-17.5 26.7-19.2 33.4-3.01-6.69-5.89-17.4-1.8-29.7 12.3-37.6 78.8-81.8 143-74.7zm14.8 83.2c25.6 14.5 5.33 69.1-17.6 50.4 8.47-2.87 13.3-8.83 13.9-17.6 0.963-6.95-2.81-12.5-6-18.3 3.67 0.944 9.13 0.158 3.2-3.3-3.7-1.9-5.3-1.9-9.1 0.1-3.6 1.8-6.8 8.3-6.9 13.6 0 4.7-1.3 4.9-3.3 0.5-8.78-19.3 11.3-33.6 25.8-25.4zm-61.1 44.7c2.9 6 3.1 7.3 3.1 17 0 9.5-0.3 11-2.7 15.6-10.6 19.9-35.8 17.7-45.3 16.1-4.4-0.8-4.6-1 4 4.5 21 13.7 28.5 41.6 17.3 48.9-3 1.8-4.3 2-14.3 1.5-19.7-2-39.1-2-58.4 2-4.43-25.5 1.75-34.7 2.5-35 0.9-0.3 1.4-2 1.4-4.5 0.182-4.7-3.37-7.82-6.2-11.1 3.92-4.45 7.33-9.3 10.5-14.3 1.66-3.4 7.81-9.67 11.2-4.5 3.26 7.37 22.9 8.13 34.9 3.5 15.4-6.1 22.1-14.7 22.1-28.5 0-6.8-0.2-7.5-2.8-9.8-4.3-3.7-8.4-3.2-15.9 2.1-15.7 11-25 15.5-32.3 15.5-5.6 0.338-8.95-3.43-12.2-7.3-0.765 5.2-3.51 10-8.7 11.9-3.3 0.8-9.3-2.2-12-5.9-5.4-8.88 0.413-18.7 4.5-26.9 3.43 3.8 6.92 7.55 10.4 11.3 2.82-3.83 5.76-7.56 8.7-11.3 2.17 2.1 4.33 4.2 6.5 6.3 12.5-9.74 25.4-19.3 41.8-20 19.1-0.336 29.1 17 31.9 22.9zm-47.9 116c-11.4 0.786-23.1 0.172-34.3 3-7.1 2-8.2 1.5-8.2-3.6s13-5.7 22.1-5.5c7.59-0.518 13.9 2.8 20.4 6.1z" stroke-width=".1"/>
 <path d="m397 332c-4.6 3-7.2 7.4-7.2 12.1v3.1l6.3-2.8c6.5-3 8-4.8 9.2-11.4 0.7-3.4 0.6-3.7-1.7-3.7-1.3 0-4.3 1.2-6.6 2.7z" stroke-width=".1"/>
</svg>
