<?xml version="1.0" encoding="UTF-8"?>
<svg width="1024" height="1024" version="1.0" viewBox="0 0 1024 1024" xmlns="http://www.w3.org/2000/svg">
 <path d="m127 461c-0.126 100 35.7 177 97.5 253l1 45.3c34 72.8 91.1 65.2 93.9 58 4.67-12-14.7-20.5-3.9-21.8 5.58-0.767 8.91-4.96 13 0.1 16.5 24.8 54.8 50.6 58 80.6-28.8 10.7-57.6 21.4-86 33-8.16 6.74-13.6 16.9-19.6 25.6h285c1.7-12.9-2.61-27.3 0.8-40 1.1 0 43.9 10.7 51.2 12.8 43.8 23.1 74.2 33 124 26.7 52.1-8.4 91.9-42 110-93 12.4-35.3 17.2-117 21.9-238 12.1-33.8 24.4-68.6 26.7-131 5.95-171-126-365-349-389-292-23-424 224-424 378zm391-313c78.7 8.74 101 83.9 113 86.9 156 38.5 267 318 201 448 0.524-51.9-4.34-182-60.1-279-1.43 12.9-2.13 38-11.7 47.5-0.5 0-0.6-0.5-0.3-1 3.28-5.1-8.49-101-53.8-120 3.55 68.7-59.3 46-108 57.8-18.3 4.7-35 15.1-44.9 28.1-5.5 7.1-5.8 8.4-1.1 4.2 11.5-9.91 50.5-27.9 96-8.4-74.7 8.86-84.4 71.7-92.5 69.9-15.7-3.57-66.7-8.41-113 23 5.9-1.5 25.5-4.6 28.8-4.6 1.79 0.0641-141 50.8-166 109 2.91-0.303 5.8-0.705 8.7-1.1 5.46 24.2-1.26 46.1-13.1 67.4 2.46 27.9-6.36 53.8 25.7 65.1-11.2 9.15-23.3 3.7-24.9 2.9-20.8-10.1-19.4-71.2-22.3-71.2-5 0-6.82 26 1.4 57.9 6.97 27.9 18.4 26.5 18.4 31.5-6.61 0.919-14.4 1.06-20.1-2.9-15.5-14.2-17.3-55-21.3-77.5-6.41 16.7-2.61 71.6 15.9 92.3-8.09-0.446-16.9-0.785-21.8-8.2-3.97-6.76-8.7-65-8.7-68.8 0-5.5 4.8-21.7 21-70.6 13.4-40.3 17-46.3 40.7-68.3 31.4-29.3 59.5-50.8 89.8-68.8 27.6-16.7 57.6-29.2 89.5-34-1.1-24.9 21.9-52.7 52.1-60.2 14.3-3.51 2.31-12.2 17-41.6 41.2-82.2 139-58.1 139-58.7 0-3.64-63.4-38.1-82.5-38.1-5.63 0-25.1-61.9-82-78.2-11.4-3.3-35-3.2-47.5 0.1-43.4 11.5-57.8 42.1-59.5 42.1 1.57-10.1 7.34-18.8 14-26.3-39.4 20.3-37.4 46.8-39.6 43.1-0.246-0.491-3.17-13.5 0.5-17.7-11 4.05-17.5 26.7-19.2 33.4-3.01-6.69-5.89-17.4-1.8-29.7 12.3-37.6 78.8-81.8 143-74.7zm14.8 83.2c25.6 14.5 5.33 69.1-17.6 50.4 8.47-2.87 13.3-8.83 13.9-17.6 0.963-6.95-2.81-12.5-6-18.3 3.67 0.944 9.13 0.158 3.2-3.3-3.7-1.9-5.3-1.9-9.1 0.1-3.6 1.8-6.8 8.3-6.9 13.6 0 4.7-1.3 4.9-3.3 0.5-8.78-19.3 11.3-33.6 25.8-25.4zm-61.1 44.7c2.9 6 3.1 7.3 3.1 17 0 9.5-0.3 11-2.7 15.6-10.6 19.9-35.8 17.7-45.3 16.1-4.4-0.8-4.6-1 4 4.5 21 13.7 28.5 41.6 17.3 48.9-3 1.8-4.3 2-14.3 1.5-19.7-2-39.1-2-58.4 2-4.43-25.5 1.75-34.7 2.5-35 0.9-0.3 1.4-2 1.4-4.5 0.182-4.7-3.37-7.82-6.2-11.1 3.92-4.45 7.33-9.3 10.5-14.3 1.66-3.4 7.81-9.67 11.2-4.5 3.26 7.37 22.9 8.13 34.9 3.5 15.4-6.1 22.1-14.7 22.1-28.5 0-6.8-0.2-7.5-2.8-9.8-4.3-3.7-8.4-3.2-15.9 2.1-15.7 11-25 15.5-32.3 15.5-5.6 0.338-8.95-3.43-12.2-7.3-0.765 5.2-3.51 10-8.7 11.9-3.3 0.8-9.3-2.2-12-5.9-5.4-8.88 0.413-18.7 4.5-26.9 3.43 3.8 6.92 7.55 10.4 11.3 2.82-3.83 5.76-7.56 8.7-11.3 2.17 2.1 4.33 4.2 6.5 6.3 12.5-9.74 25.4-19.3 41.8-20 19.1-0.336 29.1 17 31.9 22.9zm-47.9 116c-11.4 0.786-23.1 0.172-34.3 3-7.1 2-8.2 1.5-8.2-3.6 0-5.1 13-5.7 22.1-5.5 7.59-0.518 13.9 2.8 20.4 6.1zm34.5 27c0 0.298-14 20-14 25.6-23.8 2.53-45.4 30.6-67.7 36.5-0.605-0.454 10.3-60.6 37.2-57.5 19.8 2.13 44.5-5.91 44.5-4.6zm299 308c-28.6-19.1-89.6-64.2-121-84.4-41.3-26.4-75.3-42.8-106-50.9-16.2-5.85 26.4 3.42 30.6 3.6-21.5-15.9-48.2-27.4-75.1-28-26.8-0.383-44.4 12.6-60 32.3-13.7 17.5-30 31-32.6 26.9-9.45-15.6 2.34-70.4 58.6-81.5 117-22 306 141 306 182zm-359-69.2c-16.2 66.4 38 179 40.6 193-82.3-74.5-74.3-216-54.3-216 4.38 7.45 8.84 15 13.7 22.2z" stroke-width=".1"/>
 <path d="m397 332c-4.6 3-7.2 7.4-7.2 12.1v3.1l6.3-2.8c6.5-3 8-4.8 9.2-11.4 0.7-3.4 0.6-3.7-1.7-3.7-1.3 0-4.3 1.2-6.6 2.7z" stroke-width=".1"/>
</svg>
